<svg width="14" height="14" viewBox="0 0 14 14" fill="none" xmlns="http://www.w3.org/2000/svg">
<path d="M12.8334 7.00008C12.8334 10.2217 10.2217 12.8334 7.00002 12.8334M12.8334 7.00008C12.8334 3.77842 10.2217 1.16675 7.00002 1.16675M12.8334 7.00008H1.16669M7.00002 12.8334C3.77836 12.8334 1.16669 10.2217 1.16669 7.00008M7.00002 12.8334C8.4591 11.236 9.28829 9.16306 9.33335 7.00008C9.28829 4.8371 8.4591 2.76412 7.00002 1.16675M7.00002 12.8334C5.54094 11.236 4.71175 9.16306 4.66669 7.00008C4.71175 4.8371 5.54094 2.76412 7.00002 1.16675M1.16669 7.00008C1.16669 3.77842 3.77836 1.16675 7.00002 1.16675" stroke="#72777A" stroke-width="1.04348" stroke-linecap="round" stroke-linejoin="round"/>
</svg>
