<svg width="22" height="18" viewBox="0 0 22 18" fill="none" xmlns="http://www.w3.org/2000/svg">
<path d="M11.5714 18C12.0523 18 12.4449 17.8037 12.916 17.362L20.6598 10.0502C21.0327 9.69684 21.1603 9.32388 21.1603 9C21.1603 8.6663 21.0425 8.30316 20.6598 7.94002L12.916 0.696837C12.3959 0.206107 12.072 0 11.5911 0C10.904 0 10.4133 0.539804 10.4133 1.19738V4.90731H10.1287C3.07197 4.90731 0 9.43184 0 16.6848C0 17.5289 0.480916 18 1.01091 18C1.42312 18 1.87459 17.9019 2.2181 17.2737C3.92585 14.0643 6.33043 13.1025 10.1287 13.1025H10.4133V16.8517C10.4133 17.5093 10.904 18 11.5714 18ZM12.1309 15.8899C12.0523 15.8899 11.9935 15.831 11.9935 15.7426V11.9444C11.9935 11.7186 11.8953 11.6205 11.6696 11.6205H10.3544C5.69248 11.6205 2.71865 13.2399 1.56052 15.7034C1.53108 15.7721 1.51145 15.8015 1.46238 15.8015C1.42312 15.8015 1.39367 15.7721 1.39367 15.6936C1.58997 11.0611 3.61178 6.38931 10.3544 6.38931H11.6696C11.8953 6.38931 11.9935 6.29117 11.9935 6.06543V2.16903C11.9935 2.09051 12.0523 2.03162 12.1407 2.03162C12.1996 2.03162 12.2585 2.07088 12.3075 2.11014L19.2955 8.81352C19.3642 8.88223 19.3937 8.94111 19.3937 9C19.3937 9.05889 19.374 9.10796 19.2955 9.18648L12.2977 15.8015C12.2486 15.8604 12.1897 15.8899 12.1309 15.8899Z" fill="#6C7072"/>
</svg>
